<?xml version="1.0" encoding="UTF-8" standalone="no"?>
<!DOCTYPE svg PUBLIC "-//W3C//DTD SVG 1.1//EN"
 "http://www.w3.org/Graphics/SVG/1.1/DTD/svg11.dtd">
<!-- Generated by graphviz version 2.36.0 (20140111.2315)
 -->
<!-- Title: G Pages: 1 -->
<svg width="834pt" height="1948pt"
 viewBox="0.00 0.00 834.00 1948.00" xmlns="http://www.w3.org/2000/svg" xmlns:xlink="http://www.w3.org/1999/xlink">
<g id="graph0" class="graph" transform="scale(1 1) rotate(0) translate(4 1944)">
<title>G</title>
<polygon fill="white" stroke="none" points="-4,4 -4,-1944 830,-1944 830,4 -4,4"/>
<g id="clust1" class="cluster"><title>cluster_Global</title>
<path fill="none" stroke="gray" d="M277,-44C277,-44 806,-44 806,-44 812,-44 818,-50 818,-56 818,-56 818,-1920 818,-1920 818,-1926 812,-1932 806,-1932 806,-1932 277,-1932 277,-1932 271,-1932 265,-1926 265,-1920 265,-1920 265,-56 265,-56 265,-50 271,-44 277,-44"/>
<text text-anchor="middle" x="541.5" y="-1919.2" font-family="Times,serif" font-size="11.00" fill="gray">Global</text>
</g>
<g id="clust2" class="cluster"><title>cluster_\Safecrow</title>
<path fill="none" stroke="gray" d="M285,-52C285,-52 798,-52 798,-52 804,-52 810,-58 810,-64 810,-64 810,-1892 810,-1892 810,-1898 804,-1904 798,-1904 798,-1904 285,-1904 285,-1904 279,-1904 273,-1898 273,-1892 273,-1892 273,-64 273,-64 273,-58 279,-52 285,-52"/>
<text text-anchor="middle" x="541.5" y="-1891.2" font-family="Times,serif" font-size="11.00" fill="gray">Safecrow</text>
</g>
<g id="clust3" class="cluster"><title>cluster_\Safecrow\Enum</title>
<path fill="none" stroke="gray" d="M646,-1534C646,-1534 736,-1534 736,-1534 742,-1534 748,-1540 748,-1546 748,-1546 748,-1864 748,-1864 748,-1870 742,-1876 736,-1876 736,-1876 646,-1876 646,-1876 640,-1876 634,-1870 634,-1864 634,-1864 634,-1546 634,-1546 634,-1540 640,-1534 646,-1534"/>
<text text-anchor="middle" x="691" y="-1863.2" font-family="Times,serif" font-size="11.00" fill="gray">Enum</text>
</g>
<g id="clust4" class="cluster"><title>cluster_\Safecrow\Helpers</title>
<path fill="none" stroke="gray" d="M649,-1454C649,-1454 733,-1454 733,-1454 739,-1454 745,-1460 745,-1466 745,-1466 745,-1514 745,-1514 745,-1520 739,-1526 733,-1526 733,-1526 649,-1526 649,-1526 643,-1526 637,-1520 637,-1514 637,-1514 637,-1466 637,-1466 637,-1460 643,-1454 649,-1454"/>
<text text-anchor="middle" x="691" y="-1513.2" font-family="Times,serif" font-size="11.00" fill="gray">Helpers</text>
</g>
<g id="clust5" class="cluster"><title>cluster_\Safecrow\Exceptions</title>
<path fill="none" stroke="gray" d="M293,-834C293,-834 790,-834 790,-834 796,-834 802,-840 802,-846 802,-846 802,-1434 802,-1434 802,-1440 796,-1446 790,-1446 790,-1446 293,-1446 293,-1446 287,-1446 281,-1440 281,-1434 281,-1434 281,-846 281,-846 281,-840 287,-834 293,-834"/>
<text text-anchor="middle" x="541.5" y="-1433.2" font-family="Times,serif" font-size="11.00" fill="gray">Exceptions</text>
</g>
<g id="clust6" class="cluster"><title>cluster_\Safecrow\Http</title>
<path fill="none" stroke="gray" d="M666,-646C666,-646 716,-646 716,-646 722,-646 728,-652 728,-658 728,-658 728,-814 728,-814 728,-820 722,-826 716,-826 716,-826 666,-826 666,-826 660,-826 654,-820 654,-814 654,-814 654,-658 654,-658 654,-652 660,-646 666,-646"/>
<text text-anchor="middle" x="691" y="-813.2" font-family="Times,serif" font-size="11.00" fill="gray">Http</text>
</g>
<g id="clust7" class="cluster"><title>cluster_\Safecrow\Interfaces</title>
<path fill="none" stroke="gray" d="M327,-160C327,-160 383,-160 383,-160 389,-160 395,-166 395,-172 395,-172 395,-220 395,-220 395,-226 389,-232 383,-232 383,-232 327,-232 327,-232 321,-232 315,-226 315,-220 315,-220 315,-172 315,-172 315,-166 321,-160 327,-160"/>
<text text-anchor="middle" x="355" y="-219.2" font-family="Times,serif" font-size="11.00" fill="gray">Interfaces</text>
</g>
<!-- \\Safecrow\\Enum\\ClaimReasons -->
<g id="node1" class="node"><title>\\Safecrow\\Enum\\ClaimReasons</title>
<polygon fill="none" stroke="black" points="740,-1848 642,-1848 642,-1812 740,-1812 740,-1848"/>
<text text-anchor="middle" x="691" y="-1827.2" font-family="Courier,monospace" font-size="11.00">ClaimReasons</text>
</g>
<!-- \\Safecrow\\Enum\\ChangeStates -->
<g id="node2" class="node"><title>\\Safecrow\\Enum\\ChangeStates</title>
<polygon fill="none" stroke="black" points="740,-1794 642,-1794 642,-1758 740,-1758 740,-1794"/>
<text text-anchor="middle" x="691" y="-1773.2" font-family="Courier,monospace" font-size="11.00">ChangeStates</text>
</g>
<!-- \\Safecrow\\Enum\\PayerTypes -->
<g id="node3" class="node"><title>\\Safecrow\\Enum\\PayerTypes</title>
<polygon fill="none" stroke="black" points="733,-1740 649,-1740 649,-1704 733,-1704 733,-1740"/>
<text text-anchor="middle" x="691" y="-1719.2" font-family="Courier,monospace" font-size="11.00">PayerTypes</text>
</g>
<!-- \\Safecrow\\Enum\\PaymentTypes -->
<g id="node4" class="node"><title>\\Safecrow\\Enum\\PaymentTypes</title>
<polygon fill="none" stroke="black" points="740,-1686 642,-1686 642,-1650 740,-1650 740,-1686"/>
<text text-anchor="middle" x="691" y="-1665.2" font-family="Courier,monospace" font-size="11.00">PaymentTypes</text>
</g>
<!-- \\Safecrow\\Enum\\ChangeTypes -->
<g id="node5" class="node"><title>\\Safecrow\\Enum\\ChangeTypes</title>
<polygon fill="none" stroke="black" points="736.5,-1632 645.5,-1632 645.5,-1596 736.5,-1596 736.5,-1632"/>
<text text-anchor="middle" x="691" y="-1611.2" font-family="Courier,monospace" font-size="11.00">ChangeTypes</text>
</g>
<!-- \\Safecrow\\Enum\\Payers -->
<g id="node6" class="node"><title>\\Safecrow\\Enum\\Payers</title>
<polygon fill="none" stroke="black" points="719.5,-1578 662.5,-1578 662.5,-1542 719.5,-1542 719.5,-1578"/>
<text text-anchor="middle" x="691" y="-1557.2" font-family="Courier,monospace" font-size="11.00">Payers</text>
</g>
<!-- \\Safecrow\\Helpers\\FilesHelper -->
<g id="node7" class="node"><title>\\Safecrow\\Helpers\\FilesHelper</title>
<polygon fill="none" stroke="black" points="736.5,-1498 645.5,-1498 645.5,-1462 736.5,-1462 736.5,-1498"/>
<text text-anchor="middle" x="691" y="-1477.2" font-family="Courier,monospace" font-size="11.00">FilesHelper</text>
</g>
<!-- \\Safecrow\\Exceptions\\BillingException -->
<g id="node8" class="node"><title>\\Safecrow\\Exceptions\\BillingException</title>
<polygon fill="none" stroke="black" points="753.5,-1418 628.5,-1418 628.5,-1382 753.5,-1382 753.5,-1418"/>
<text text-anchor="middle" x="691" y="-1397.2" font-family="Courier,monospace" font-size="11.00">BillingException</text>
</g>
<!-- \\Safecrow\\Exceptions\\SafecrowException -->
<g id="node13" class="node"><title>\\Safecrow\\Exceptions\\SafecrowException</title>
<polygon fill="none" stroke="black" points="420.5,-1148 289.5,-1148 289.5,-1112 420.5,-1112 420.5,-1148"/>
<text text-anchor="middle" x="355" y="-1127.2" font-family="Courier,monospace" font-size="11.00">SafecrowException</text>
</g>
<!-- \\Safecrow\\Exceptions\\BillingException&#45;&gt;\\Safecrow\\Exceptions\\SafecrowException -->
<g id="edge1" class="edge"><title>\\Safecrow\\Exceptions\\BillingException&#45;&gt;\\Safecrow\\Exceptions\\SafecrowException</title>
<path fill="none" stroke="black" d="M628.479,-1389.53C614.576,-1385.61 600.301,-1380.27 588,-1373 491.123,-1315.76 408.506,-1206.79 373.672,-1156.57"/>
<polygon fill="none" stroke="black" points="376.463,-1154.45 367.921,-1148.18 370.689,-1158.41 376.463,-1154.45"/>
</g>
<!-- \\Safecrow\\Exceptions\\IncorrectAttachmentException -->
<g id="node9" class="node"><title>\\Safecrow\\Exceptions\\IncorrectAttachmentException</title>
<polygon fill="none" stroke="black" points="794,-1364 588,-1364 588,-1328 794,-1328 794,-1364"/>
<text text-anchor="middle" x="691" y="-1343.2" font-family="Courier,monospace" font-size="11.00">IncorrectAttachmentException</text>
</g>
<!-- \\Safecrow\\Exceptions\\IncorrectAttachmentException&#45;&gt;\\Safecrow\\Exceptions\\SafecrowException -->
<g id="edge2" class="edge"><title>\\Safecrow\\Exceptions\\IncorrectAttachmentException&#45;&gt;\\Safecrow\\Exceptions\\SafecrowException</title>
<path fill="none" stroke="black" d="M608.904,-1327.97C601.682,-1325.35 594.61,-1322.37 588,-1319 502.33,-1275.35 419.276,-1196.04 379.83,-1155.43"/>
<polygon fill="none" stroke="black" points="382.214,-1152.86 372.757,-1148.09 377.17,-1157.72 382.214,-1152.86"/>
</g>
<!-- \\Safecrow\\Exceptions\\ClaimsException -->
<g id="node10" class="node"><title>\\Safecrow\\Exceptions\\ClaimsException</title>
<polygon fill="none" stroke="black" points="750,-1310 632,-1310 632,-1274 750,-1274 750,-1310"/>
<text text-anchor="middle" x="691" y="-1289.2" font-family="Courier,monospace" font-size="11.00">ClaimsException</text>
</g>
<!-- \\Safecrow\\Exceptions\\ClaimsException&#45;&gt;\\Safecrow\\Exceptions\\SafecrowException -->
<g id="edge3" class="edge"><title>\\Safecrow\\Exceptions\\ClaimsException&#45;&gt;\\Safecrow\\Exceptions\\SafecrowException</title>
<path fill="none" stroke="black" d="M631.923,-1279.51C617.329,-1275.59 601.876,-1270.75 588,-1265 513.537,-1234.14 433.786,-1183.35 389.886,-1153.65"/>
<polygon fill="none" stroke="black" points="391.831,-1150.74 381.596,-1148.01 387.891,-1156.53 391.831,-1150.74"/>
</g>
<!-- \\Safecrow\\Exceptions\\OrderCreateException -->
<g id="node11" class="node"><title>\\Safecrow\\Exceptions\\OrderCreateException</title>
<polygon fill="none" stroke="black" points="767,-1256 615,-1256 615,-1220 767,-1220 767,-1256"/>
<text text-anchor="middle" x="691" y="-1235.2" font-family="Courier,monospace" font-size="11.00">OrderCreateException</text>
</g>
<!-- \\Safecrow\\Exceptions\\OrderCreateException&#45;&gt;\\Safecrow\\Exceptions\\SafecrowException -->
<g id="edge4" class="edge"><title>\\Safecrow\\Exceptions\\OrderCreateException&#45;&gt;\\Safecrow\\Exceptions\\SafecrowException</title>
<path fill="none" stroke="black" d="M619.016,-1219.97C608.578,-1217.09 597.983,-1214.06 588,-1211 528.022,-1192.62 460.405,-1168.63 413.711,-1151.54"/>
<polygon fill="none" stroke="black" points="414.669,-1148.16 404.075,-1148 412.256,-1154.74 414.669,-1148.16"/>
</g>
<!-- \\Safecrow\\Exceptions\\ChangesException -->
<g id="node12" class="node"><title>\\Safecrow\\Exceptions\\ChangesException</title>
<polygon fill="none" stroke="black" points="753.5,-1202 628.5,-1202 628.5,-1166 753.5,-1166 753.5,-1202"/>
<text text-anchor="middle" x="691" y="-1181.2" font-family="Courier,monospace" font-size="11.00">ChangesException</text>
</g>
<!-- \\Safecrow\\Exceptions\\ChangesException&#45;&gt;\\Safecrow\\Exceptions\\SafecrowException -->
<g id="edge5" class="edge"><title>\\Safecrow\\Exceptions\\ChangesException&#45;&gt;\\Safecrow\\Exceptions\\SafecrowException</title>
<path fill="none" stroke="black" d="M628.35,-1174.03C572.579,-1165.02 490.312,-1151.72 430.799,-1142.09"/>
<polygon fill="none" stroke="black" points="431.139,-1138.6 420.709,-1140.46 430.022,-1145.51 431.139,-1138.6"/>
</g>
<!-- \\Exception -->
<g id="node35" class="node"><title>\\Exception</title>
<ellipse fill="none" stroke="black" cx="61" cy="-1130" rx="60.3893" ry="18"/>
<text text-anchor="middle" x="61" y="-1126.3" font-family="Times,serif" font-size="14.00" fill="gray">\Exception</text>
</g>
<!-- \\Safecrow\\Exceptions\\SafecrowException&#45;&gt;\\Exception -->
<g id="edge6" class="edge"><title>\\Safecrow\\Exceptions\\SafecrowException&#45;&gt;\\Exception</title>
<path fill="none" stroke="black" d="M289.196,-1130C242.549,-1130 179.688,-1130 131.912,-1130"/>
<polygon fill="none" stroke="black" points="131.652,-1126.5 121.652,-1130 131.652,-1133.5 131.652,-1126.5"/>
</g>
<!-- \\Safecrow\\Exceptions\\RegistrationException -->
<g id="node14" class="node"><title>\\Safecrow\\Exceptions\\RegistrationException</title>
<polygon fill="none" stroke="black" points="770,-1148 612,-1148 612,-1112 770,-1112 770,-1148"/>
<text text-anchor="middle" x="691" y="-1127.2" font-family="Courier,monospace" font-size="11.00">RegistrationException</text>
</g>
<!-- \\Safecrow\\Exceptions\\RegistrationException&#45;&gt;\\Safecrow\\Exceptions\\SafecrowException -->
<g id="edge7" class="edge"><title>\\Safecrow\\Exceptions\\RegistrationException&#45;&gt;\\Safecrow\\Exceptions\\SafecrowException</title>
<path fill="none" stroke="black" d="M611.692,-1130C557.078,-1130 484.638,-1130 430.808,-1130"/>
<polygon fill="none" stroke="black" points="430.642,-1126.5 420.642,-1130 430.642,-1133.5 430.642,-1126.5"/>
</g>
<!-- \\Safecrow\\Exceptions\\AuthException -->
<g id="node15" class="node"><title>\\Safecrow\\Exceptions\\AuthException</title>
<polygon fill="none" stroke="black" points="743,-1094 639,-1094 639,-1058 743,-1058 743,-1094"/>
<text text-anchor="middle" x="691" y="-1073.2" font-family="Courier,monospace" font-size="11.00">AuthException</text>
</g>
<!-- \\Safecrow\\Exceptions\\AuthException&#45;&gt;\\Safecrow\\Exceptions\\SafecrowException -->
<g id="edge9" class="edge"><title>\\Safecrow\\Exceptions\\AuthException&#45;&gt;\\Safecrow\\Exceptions\\SafecrowException</title>
<path fill="none" stroke="black" d="M638.909,-1084.26C583.315,-1093.25 493.904,-1107.7 430.491,-1117.96"/>
<polygon fill="none" stroke="black" points="429.859,-1114.51 420.546,-1119.56 430.976,-1121.42 429.859,-1114.51"/>
</g>
<!-- \\Safecrow\\Exceptions\\SubscriptionsException -->
<g id="node16" class="node"><title>\\Safecrow\\Exceptions\\SubscriptionsException</title>
<polygon fill="none" stroke="black" points="773.5,-1040 608.5,-1040 608.5,-1004 773.5,-1004 773.5,-1040"/>
<text text-anchor="middle" x="691" y="-1019.2" font-family="Courier,monospace" font-size="11.00">SubscriptionsException</text>
</g>
<!-- \\Safecrow\\Exceptions\\SubscriptionsException&#45;&gt;\\Safecrow\\Exceptions\\SafecrowException -->
<g id="edge11" class="edge"><title>\\Safecrow\\Exceptions\\SubscriptionsException&#45;&gt;\\Safecrow\\Exceptions\\SafecrowException</title>
<path fill="none" stroke="black" d="M619.016,-1040.03C608.578,-1042.91 597.983,-1045.94 588,-1049 528.022,-1067.38 460.405,-1091.37 413.711,-1108.46"/>
<polygon fill="none" stroke="black" points="412.256,-1105.26 404.075,-1112 414.669,-1111.84 412.256,-1105.26"/>
</g>
<!-- \\Safecrow\\Exceptions\\TransitionException -->
<g id="node17" class="node"><title>\\Safecrow\\Exceptions\\TransitionException</title>
<polygon fill="none" stroke="black" points="763.5,-986 618.5,-986 618.5,-950 763.5,-950 763.5,-986"/>
<text text-anchor="middle" x="691" y="-965.2" font-family="Courier,monospace" font-size="11.00">TransitionException</text>
</g>
<!-- \\Safecrow\\Exceptions\\TransitionException&#45;&gt;\\Safecrow\\Exceptions\\SafecrowException -->
<g id="edge12" class="edge"><title>\\Safecrow\\Exceptions\\TransitionException&#45;&gt;\\Safecrow\\Exceptions\\SafecrowException</title>
<path fill="none" stroke="black" d="M618.404,-984.334C608.053,-987.447 597.646,-991.002 588,-995 513.537,-1025.86 433.786,-1076.65 389.886,-1106.35"/>
<polygon fill="none" stroke="black" points="387.891,-1103.47 381.596,-1111.99 391.831,-1109.26 387.891,-1103.47"/>
</g>
<!-- \\Safecrow\\Exceptions\\PaymentsException -->
<g id="node18" class="node"><title>\\Safecrow\\Exceptions\\PaymentsException</title>
<polygon fill="none" stroke="black" points="756.5,-932 625.5,-932 625.5,-896 756.5,-896 756.5,-932"/>
<text text-anchor="middle" x="691" y="-911.2" font-family="Courier,monospace" font-size="11.00">PaymentsException</text>
</g>
<!-- \\Safecrow\\Exceptions\\PaymentsException&#45;&gt;\\Safecrow\\Exceptions\\SafecrowException -->
<g id="edge13" class="edge"><title>\\Safecrow\\Exceptions\\PaymentsException&#45;&gt;\\Safecrow\\Exceptions\\SafecrowException</title>
<path fill="none" stroke="black" d="M625.341,-926.672C612.595,-930.39 599.589,-935.096 588,-941 502.33,-984.646 419.276,-1063.96 379.83,-1104.57"/>
<polygon fill="none" stroke="black" points="377.17,-1102.28 372.757,-1111.91 382.214,-1107.14 377.17,-1102.28"/>
</g>
<!-- \\Safecrow\\Exceptions\\HttpQueryException -->
<g id="node19" class="node"><title>\\Safecrow\\Exceptions\\HttpQueryException</title>
<polygon fill="none" stroke="black" points="760,-878 622,-878 622,-842 760,-842 760,-878"/>
<text text-anchor="middle" x="691" y="-857.2" font-family="Courier,monospace" font-size="11.00">HttpQueryException</text>
</g>
<!-- \\Safecrow\\Exceptions\\HttpQueryException&#45;&gt;\\Safecrow\\Exceptions\\SafecrowException -->
<g id="edge14" class="edge"><title>\\Safecrow\\Exceptions\\HttpQueryException&#45;&gt;\\Safecrow\\Exceptions\\SafecrowException</title>
<path fill="none" stroke="black" d="M621.776,-872.463C610.051,-876.149 598.33,-880.897 588,-887 491.123,-944.239 408.506,-1053.21 373.672,-1103.43"/>
<polygon fill="none" stroke="black" points="370.689,-1101.59 367.921,-1111.82 376.463,-1105.55 370.689,-1101.59"/>
</g>
<!-- \\Safecrow\\Http\\Client -->
<g id="node20" class="node"><title>\\Safecrow\\Http\\Client</title>
<polygon fill="none" stroke="black" points="719.5,-798 662.5,-798 662.5,-762 719.5,-762 719.5,-798"/>
<text text-anchor="middle" x="691" y="-777.2" font-family="Courier,monospace" font-size="11.00">Client</text>
</g>
<!-- \\Safecrow\\Http\\Helper -->
<g id="node21" class="node"><title>\\Safecrow\\Http\\Helper</title>
<polygon fill="none" stroke="black" points="719.5,-744 662.5,-744 662.5,-708 719.5,-708 719.5,-744"/>
<text text-anchor="middle" x="691" y="-723.2" font-family="Courier,monospace" font-size="11.00">Helper</text>
</g>
<!-- \\Safecrow\\Http\\Query -->
<g id="node22" class="node"><title>\\Safecrow\\Http\\Query</title>
<polygon fill="none" stroke="black" points="718,-690 664,-690 664,-654 718,-654 718,-690"/>
<text text-anchor="middle" x="691" y="-669.2" font-family="Courier,monospace" font-size="11.00">Query</text>
</g>
<!-- \\Safecrow\\Interfaces\\IConfig -->
<g id="node23" class="node"><title>\\Safecrow\\Interfaces\\IConfig</title>
<polygon fill="none" stroke="black" points="387,-204 323,-204 323,-168 387,-168 387,-204"/>
<text text-anchor="middle" x="355" y="-183.2" font-family="Courier,monospace" font-size="11.00">IConfig</text>
</g>
<!-- \\Safecrow\\Claims -->
<g id="node24" class="node"><title>\\Safecrow\\Claims</title>
<polygon fill="none" stroke="black" points="719.5,-636 662.5,-636 662.5,-600 719.5,-600 719.5,-636"/>
<text text-anchor="middle" x="691" y="-615.2" font-family="Courier,monospace" font-size="11.00">Claims</text>
</g>
<!-- \\Safecrow\\Changes -->
<g id="node25" class="node"><title>\\Safecrow\\Changes</title>
<polygon fill="none" stroke="black" points="723,-582 659,-582 659,-546 723,-546 723,-582"/>
<text text-anchor="middle" x="691" y="-561.2" font-family="Courier,monospace" font-size="11.00">Changes</text>
</g>
<!-- \\Safecrow\\Subscriptions -->
<g id="node26" class="node"><title>\\Safecrow\\Subscriptions</title>
<polygon fill="none" stroke="black" points="743,-528 639,-528 639,-492 743,-492 743,-528"/>
<text text-anchor="middle" x="691" y="-507.2" font-family="Courier,monospace" font-size="11.00">Subscriptions</text>
</g>
<!-- \\Safecrow\\Shipping -->
<g id="node27" class="node"><title>\\Safecrow\\Shipping</title>
<polygon fill="none" stroke="black" points="726.5,-474 655.5,-474 655.5,-438 726.5,-438 726.5,-474"/>
<text text-anchor="middle" x="691" y="-453.2" font-family="Courier,monospace" font-size="11.00">Shipping</text>
</g>
<!-- \\Safecrow\\Orders -->
<g id="node28" class="node"><title>\\Safecrow\\Orders</title>
<polygon fill="none" stroke="black" points="719.5,-420 662.5,-420 662.5,-384 719.5,-384 719.5,-420"/>
<text text-anchor="middle" x="691" y="-399.2" font-family="Courier,monospace" font-size="11.00">Orders</text>
</g>
<!-- \\Safecrow\\App -->
<g id="node29" class="node"><title>\\Safecrow\\App</title>
<polygon fill="none" stroke="black" points="718,-366 664,-366 664,-330 718,-330 718,-366"/>
<text text-anchor="middle" x="691" y="-345.2" font-family="Courier,monospace" font-size="11.00">App</text>
</g>
<!-- \\Safecrow\\Users -->
<g id="node30" class="node"><title>\\Safecrow\\Users</title>
<polygon fill="none" stroke="black" points="718,-312 664,-312 664,-276 718,-276 718,-312"/>
<text text-anchor="middle" x="691" y="-291.2" font-family="Courier,monospace" font-size="11.00">Users</text>
</g>
<!-- \\Safecrow\\Transitions -->
<g id="node31" class="node"><title>\\Safecrow\\Transitions</title>
<polygon fill="none" stroke="black" points="736.5,-258 645.5,-258 645.5,-222 736.5,-222 736.5,-258"/>
<text text-anchor="middle" x="691" y="-237.2" font-family="Courier,monospace" font-size="11.00">Transitions</text>
</g>
<!-- \\Safecrow\\Config -->
<g id="node32" class="node"><title>\\Safecrow\\Config</title>
<polygon fill="none" stroke="black" points="719.5,-204 662.5,-204 662.5,-168 719.5,-168 719.5,-204"/>
<text text-anchor="middle" x="691" y="-183.2" font-family="Courier,monospace" font-size="11.00">Config</text>
</g>
<!-- \\Safecrow\\Config&#45;&gt;\\Safecrow\\Interfaces\\IConfig -->
<g id="edge8" class="edge"><title>\\Safecrow\\Config&#45;&gt;\\Safecrow\\Interfaces\\IConfig</title>
<path fill="none" stroke="black" stroke-dasharray="1,5" d="M662.383,-186C603.662,-186 466.139,-186 397.087,-186"/>
<polygon fill="none" stroke="black" points="397.014,-182.5 387.014,-186 397.014,-189.5 397.014,-182.5"/>
</g>
<!-- \\Safecrow\\Billing -->
<g id="node33" class="node"><title>\\Safecrow\\Billing</title>
<polygon fill="none" stroke="black" points="723,-150 659,-150 659,-114 723,-114 723,-150"/>
<text text-anchor="middle" x="691" y="-129.2" font-family="Courier,monospace" font-size="11.00">Billing</text>
</g>
<!-- \\PHPUnit_Framework_TestCase -->
<g id="node36" class="node"><title>\\PHPUnit_Framework_TestCase</title>
<ellipse fill="none" stroke="black" cx="355" cy="-18" rx="160.572" ry="18"/>
<text text-anchor="middle" x="355" y="-14.3" font-family="Times,serif" font-size="14.00" fill="gray">\PHPUnit_Framework_TestCase</text>
</g>
<!-- \\Safecrow\\Billing&#45;&gt;\\PHPUnit_Framework_TestCase -->
<g id="edge10" class="edge"><title>\\Safecrow\\Billing&#45;&gt;\\PHPUnit_Framework_TestCase</title>
<path fill="none" stroke="black" d="M658.97,-124.643C638.637,-119.613 611.56,-112.515 588,-105 525.313,-85.0044 454.71,-57.8436 408.031,-39.2187"/>
<polygon fill="none" stroke="black" points="409.319,-35.9644 398.735,-35.496 406.717,-42.4627 409.319,-35.9644"/>
</g>
<!-- \\Safecrow\\Payments -->
<g id="node34" class="node"><title>\\Safecrow\\Payments</title>
<polygon fill="none" stroke="black" points="726.5,-96 655.5,-96 655.5,-60 726.5,-60 726.5,-96"/>
<text text-anchor="middle" x="691" y="-75.2" font-family="Courier,monospace" font-size="11.00">Payments</text>
</g>
</g>
</svg>
